<svg width="49" height="49" viewBox="0 0 49 49" fill="none" xmlns="http://www.w3.org/2000/svg">
<path d="M30.8734 22.8812L24.8228 16.8335L24.8228 16.8334C24.5189 16.5295 24.3481 16.1173 24.3481 15.6875C24.3481 15.2577 24.5189 14.8455 24.8228 14.5416C25.1267 14.2376 25.5389 14.0669 25.9687 14.0669C26.3986 14.0669 26.8108 14.2376 27.1147 14.5416L35.9271 23.3539L30.8734 22.8812ZM30.8734 22.8812L14.2187 22.8812C13.7894 22.8812 13.3777 23.0518 13.0741 23.3554C12.7705 23.6589 12.6 24.0707 12.6 24.5C12.6 24.9293 12.7705 25.3411 13.0741 25.6446C13.3777 25.9482 13.7894 26.1187 14.2187 26.1187L30.8734 26.1187L24.8228 32.1665L24.8228 32.1666C24.5189 32.4705 24.3481 32.8827 24.3481 33.3125C24.3481 33.7423 24.5189 34.1545 24.8228 34.4584C25.1267 34.7624 25.5389 34.9331 25.9687 34.9331C26.3986 34.9331 26.8108 34.7624 27.1147 34.4584L35.9271 25.6461L30.8734 22.8812ZM36.279 25.1204C36.1974 25.317 36.0779 25.4956 35.9272 25.6459L36.279 25.1204ZM36.279 25.1204C36.3606 24.9238 36.4026 24.7129 36.4026 24.5M36.279 25.1204L36.4026 24.5M36.4026 24.5C36.4026 24.2871 36.3606 24.0762 36.279 23.8796M36.4026 24.5L36.279 23.8796M36.279 23.8796C36.1974 23.683 36.0779 23.5044 35.9272 23.3541L36.279 23.8796ZM38.9338 38.9338C35.1057 42.7619 29.9137 44.9125 24.5 44.9125C19.0863 44.9125 13.8943 42.7619 10.0662 38.9338C6.2381 35.1057 4.0875 29.9137 4.0875 24.5C4.0875 19.0863 6.23809 13.8943 10.0662 10.0662C13.8943 6.2381 19.0863 4.0875 24.5 4.0875C29.9137 4.0875 35.1057 6.2381 38.9338 10.0662C42.7619 13.8943 44.9125 19.0863 44.9125 24.5C44.9125 29.9137 42.7619 35.1057 38.9338 38.9338ZM41.2231 7.77692C36.7878 3.34168 30.7724 0.849997 24.5 0.849997C18.2276 0.849998 12.2122 3.34169 7.77692 7.77692C3.34169 12.2122 0.849999 18.2276 0.849999 24.5C0.849999 30.7724 3.34169 36.7878 7.77692 41.2231C12.2122 45.6583 18.2276 48.15 24.5 48.15C30.7724 48.15 36.7878 45.6583 41.2231 41.2231C45.6583 36.7878 48.15 30.7724 48.15 24.5C48.15 18.2276 45.6583 12.2122 41.2231 7.77692Z" fill="black" stroke="black" stroke-width="0.3"/>
</svg>
