<svg width="196" height="196" viewBox="0 0 196 196" fill="none" xmlns="http://www.w3.org/2000/svg">
<path d="M48.2124 31.1593C47.4394 34.8817 49.8305 38.526 53.5529 39.299C57.2754 40.072 60.9197 37.681 61.6927 33.9585C62.4656 30.236 60.0746 26.5918 56.3521 25.8188C52.6297 25.0458 48.9854 27.4368 48.2124 31.1593Z" stroke="black" stroke-width="2"/>
<path d="M102.133 42.3562C101.36 46.0786 103.751 49.7229 107.474 50.4959C111.196 51.2689 114.841 48.8779 115.614 45.1554C116.387 41.4329 113.996 37.7887 110.273 37.0157C106.551 36.2427 102.906 38.6337 102.133 42.3562Z" stroke="black" stroke-width="2"/>
<path d="M156.054 53.553C155.281 57.2754 157.672 60.9197 161.395 61.6927C165.117 62.4657 168.761 60.0746 169.534 56.3522C170.307 52.6297 167.916 48.9854 164.194 48.2125C160.472 47.4395 156.827 49.8305 156.054 53.553Z" stroke="black" stroke-width="2"/>
<path d="M37.0156 85.0802C36.2426 88.8026 38.6337 92.4469 42.3561 93.2199C46.0786 93.9929 49.7229 91.6019 50.4958 87.8794C51.2688 84.1569 48.8778 80.5127 45.1553 79.7397C41.4329 78.9667 37.7886 81.3577 37.0156 85.0802Z" stroke="black" stroke-width="2"/>
<path d="M90.9365 96.2771C90.1635 99.9995 92.5546 103.644 96.277 104.417C99.9995 105.19 103.644 102.799 104.417 99.0763C105.19 95.3538 102.799 91.7096 99.0762 90.9366C95.3538 90.1636 91.7095 92.5546 90.9365 96.2771Z" stroke="black" stroke-width="2"/>
<path d="M144.857 107.474C144.084 111.196 146.475 114.841 150.198 115.614C153.92 116.387 157.565 113.996 158.338 110.273C159.111 106.551 156.72 102.906 152.997 102.133C149.275 101.36 145.63 103.751 144.857 107.474Z" stroke="black" stroke-width="2"/>
<path d="M25.8188 139.001C25.0458 142.724 27.4368 146.368 31.1593 147.141C34.8817 147.914 38.526 145.523 39.299 141.8C40.072 138.078 37.681 134.434 33.9585 133.661C30.236 132.888 26.5918 135.279 25.8188 139.001Z" stroke="black" stroke-width="2"/>
<path d="M79.7397 150.198C78.9667 153.92 81.3577 157.565 85.0802 158.338C88.8026 159.111 92.4469 156.72 93.2199 152.997C93.9929 149.275 91.6019 145.63 87.8794 144.857C84.1569 144.084 80.5126 146.476 79.7397 150.198Z" stroke="black" stroke-width="2"/>
<path d="M133.661 161.395C132.888 165.117 135.279 168.761 139.001 169.534C142.724 170.307 146.368 167.916 147.141 164.194C147.914 160.472 145.523 156.827 141.8 156.054C138.078 155.281 134.434 157.672 133.661 161.395Z" stroke="black" stroke-width="2"/>
</svg>
