<svg width="35" height="34" viewBox="0 0 35 34" fill="none" xmlns="http://www.w3.org/2000/svg">
<path d="M17.4985 10.4507C15.7101 10.4507 13.9949 11.1408 12.7303 12.3693C11.4657 13.5978 10.7552 15.264 10.7552 17.0014C10.7552 18.7387 11.4657 20.4049 12.7303 21.6334C13.9949 22.8619 15.7101 23.552 17.4985 23.552C19.287 23.552 21.0022 22.8619 22.2668 21.6334C23.5314 20.4049 24.2419 18.7387 24.2419 17.0014C24.2419 15.264 23.5314 13.5978 22.2668 12.3693C21.0022 11.1408 19.287 10.4507 17.4985 10.4507V10.4507ZM17.4985 21.2556C16.3367 21.2556 15.2224 20.8072 14.4008 20.0091C13.5793 19.2111 13.1177 18.1286 13.1177 16.9999C13.1177 15.8713 13.5793 14.7888 14.4008 13.9907C15.2224 13.1926 16.3367 12.7443 17.4985 12.7443C18.6604 12.7443 19.7747 13.1926 20.5963 13.9907C21.4178 14.7888 21.8794 15.8713 21.8794 16.9999C21.8794 18.1286 21.4178 19.2111 20.5963 20.0091C19.7747 20.8072 18.6604 21.2556 17.4985 21.2556V21.2556Z" fill="#5A6E77"/>
<path d="M24.5088 11.7372C25.377 11.7372 26.0808 11.0535 26.0808 10.21C26.0808 9.3666 25.377 8.68286 24.5088 8.68286C23.6405 8.68286 22.9367 9.3666 22.9367 10.21C22.9367 11.0535 23.6405 11.7372 24.5088 11.7372Z" fill="#5A6E77"/>
<path d="M29.944 8.65725C29.6064 7.81034 29.0905 7.04123 28.4292 6.39916C27.768 5.7571 26.9761 5.25621 26.1042 4.92858C25.0838 4.5565 24.0059 4.35531 22.9163 4.33358C21.5119 4.27408 21.0671 4.25708 17.5058 4.25708C13.9446 4.25708 13.4881 4.25708 12.0954 4.33358C11.0066 4.3542 9.92945 4.55543 8.91043 4.92858C8.03825 5.25583 7.24613 5.75658 6.58488 6.3987C5.92362 7.04081 5.40785 7.81011 5.07064 8.65725C4.68754 9.64836 4.48091 10.6956 4.4596 11.7541C4.39689 13.1169 4.37793 13.549 4.37793 17.0099C4.37793 20.4694 4.37793 20.91 4.4596 22.2657C4.48147 23.3254 4.6871 24.3709 5.07064 25.364C5.40879 26.2108 5.92507 26.9798 6.58648 27.6218C7.24789 28.2639 8.0399 28.7648 8.91189 29.0927C9.92898 29.4797 11.0066 29.6953 12.0983 29.7302C13.5027 29.7897 13.9475 29.8081 17.5088 29.8081C21.07 29.8081 21.5265 29.8081 22.9192 29.7302C24.0087 29.7086 25.0866 29.5079 26.1071 29.1366C26.9788 28.8082 27.7705 28.3069 28.4316 27.6646C29.0928 27.0224 29.6088 26.2533 29.9469 25.4065C30.3304 24.4148 30.5361 23.3693 30.5579 22.3097C30.6206 20.9468 30.6396 20.5147 30.6396 17.0538C30.6396 13.5929 30.6396 13.1537 30.5579 11.798C30.541 10.7245 30.3332 9.66202 29.944 8.65725V8.65725ZM28.1677 22.1609C28.1583 22.9773 28.0049 23.7862 27.7142 24.5522C27.4952 25.1031 27.1599 25.6034 26.7299 26.0209C26.2999 26.4383 25.7847 26.7637 25.2175 26.9762C24.4376 27.2573 23.6139 27.4063 22.7821 27.4167C21.3967 27.4791 21.0058 27.4947 17.4533 27.4947C13.8979 27.4947 13.5348 27.4947 12.1231 27.4167C11.2918 27.4069 10.4684 27.2578 9.68918 26.9762C9.11997 26.7651 8.60272 26.4402 8.17089 26.0227C7.73906 25.6052 7.40227 25.1042 7.1823 24.5522C6.89566 23.7944 6.74234 22.9951 6.72876 22.1878C6.66605 20.842 6.65147 20.4623 6.65147 17.0113C6.65147 13.5589 6.65147 13.2062 6.72876 11.8334C6.73819 11.0174 6.89159 10.2091 7.1823 9.4435C7.6271 8.32575 8.53855 7.446 9.68918 7.01816C10.4688 6.73786 11.2919 6.58886 12.1231 6.57758C13.51 6.51666 13.8994 6.49966 17.4533 6.49966C21.0073 6.49966 21.3719 6.49966 22.7821 6.57758C23.6139 6.5873 24.4378 6.73635 25.2175 7.01816C25.7847 7.23105 26.2998 7.55678 26.7298 7.97446C27.1597 8.39213 27.495 8.89251 27.7142 9.4435C28.0008 10.2013 28.1541 11.0006 28.1677 11.8079C28.2304 13.1552 28.2465 13.5334 28.2465 16.9858C28.2465 20.4368 28.2465 20.808 28.1838 22.1623H28.1677V22.1609Z" fill="#5A6E77"/>
</svg>
