<svg width="35" height="34" viewBox="0 0 35 34" fill="none" xmlns="http://www.w3.org/2000/svg">
<path d="M7.26691 10.1959C9.02916 10.1959 10.4577 8.80815 10.4577 7.09625C10.4577 5.38435 9.02916 3.99658 7.26691 3.99658C5.50466 3.99658 4.07608 5.38435 4.07608 7.09625C4.07608 8.80815 5.50466 10.1959 7.26691 10.1959Z" fill="#5A6E77"/>
<path d="M13.4706 12.5446V29.7416H18.9671V21.2373C18.9671 18.9933 19.4016 16.8201 22.2658 16.8201C25.0906 16.8201 25.1256 19.3857 25.1256 21.379V29.743H30.625V20.3122C30.625 15.6797 29.5983 12.1196 24.0246 12.1196C21.3485 12.1196 19.5548 13.5462 18.8212 14.8963H18.7469V12.5446H13.4706V12.5446ZM4.51352 12.5446H10.0187V29.7416H4.51352V12.5446Z" fill="#5A6E77"/>
</svg>
