<svg width="128" height="128" viewBox="0 0 128 128" fill="none" xmlns="http://www.w3.org/2000/svg">
<path d="M40.01 95.48C40.01 95.48 42.45 105.52 42.07 106.93C41.69 108.34 34.75 109.46 30.71 111.53C28.06 112.89 23.79 115.92 26.39 118.37C27.8 119.7 31.74 116.34 43.57 115.66C55.58 114.97 57.7 115.95 57.08 113.41C56.47 110.88 53.28 110.59 50.6 109.47C49.71 109.1 48.68 108.51 48.25 107.87C47.84 107.26 48.44 96.89 48.44 96.89L40.01 95.48V95.48Z" fill="#0267FE"/>
<path d="M62.16 102.52C62.16 102.52 62.44 112.67 62.44 113.32C62.44 114.27 60.12 115.41 56.67 116.18C53.22 116.95 46.39 118.23 46.3 122.6C46.24 125.29 59.42 121.65 66.95 121.76C74.48 121.87 79.31 122.86 78.96 119.7C78.68 117.17 74.76 116.02 72.65 115.56C70.54 115.1 69.58 114.07 69.52 112.81C69.48 111.99 69.66 102.74 69.66 102.74L62.16 102.52V102.52Z" fill="#0267FE"/>
<path d="M41.89 8.01002L50.95 7.40002C50.95 7.40002 55.99 9.03002 60.78 15.97C67.14 25.2 66.3 42.08 66.3 42.08L83.76 88.63L85.87 104.02C85.87 104.02 70.25 106.48 54.95 104.49C36.93 102.14 18.35 85.81 18.63 61.41C18.91 37.01 38.25 13.45 38.25 13.45L41.89 8.01002V8.01002Z" fill="url(#paint0_linear)"/>
<path d="M21.15 16.93C21.15 16.93 14.2 19.09 12.23 26.88C10.26 34.67 13.55 41.92 15 42.41C15.56 42.6 17.3 39.08 17.3 39.08C17.3 39.08 19.74 41.9 20.96 42.55C22.18 43.21 22.79 43.7 23.87 43.63C25.98 43.49 29.08 37.34 28.99 33.21L30.07 12.98L21.15 16.93V16.93Z" fill="#1D93FF"/>
<path d="M29.85 28.09C29.85 28.09 38.32 26.68 41.7 23.77C45.08 20.86 49.02 18.23 50.33 12.98C51.13 9.77999 51.17 7.53999 51.17 7.53999C51.17 7.53999 39.36 0.689989 28.66 6.31999C17.96 11.95 20.49 19.6 20.49 19.6L29.85 28.09V28.09Z" fill="#23E5FF"/>
<path d="M29.5 29.22C29.5 29.22 22.65 33.26 21.9 33.82C21.15 34.38 18.7 35.6 17.58 36.54C15.8 38.04 14.2 41.42 14.86 42.27C15.52 43.11 16.46 40.49 19.08 38.89C21.7 37.29 26.21 34.76 27.43 34.1C28.65 33.44 29.03 33.07 29.03 33.07L29.5 29.22V29.22Z" fill="#0D5FFF"/>
<path d="M31.83 27.46C32.3 26.47 32.51 24.2 29.32 20.21C25.57 15.52 20.31 15.33 20.31 15.33L19.75 17.21L25.57 23.03L28.8 30C28.8 30 30.86 29.5 31.83 27.46V27.46Z" fill="#1BA090"/>
<path d="M15.89 20.4C15.89 20.4 20.21 20.68 23.21 23.31C24.99 24.87 27.68 28.21 28.34 29.72C29 31.23 31.25 27.05 29.47 24.23C27.69 21.41 25.56 18.58 21.62 17.21C18.78 16.23 16.08 18.62 15.89 20.4V20.4Z" fill="#80BFEC"/>
<path d="M49.49 25.94C49.49 25.94 46.02 17.12 38.88 17.49C31.68 17.87 30.57 23.22 30.9 26.41C31.28 30.1 33.72 32.14 39.35 31.95C44.99 31.75 49.49 25.94 49.49 25.94V25.94Z" fill="#FBD3B3"/>
<path d="M44.24 24.81C44.24 27.09 41.76 29.13 39.5 29.13C37.25 29.13 35.42 27.28 35.42 25C35.42 22.72 36.73 20.21 39.92 20.03C43.29 19.82 44.24 22.53 44.24 24.81V24.81Z" fill="#312F2A"/>
<path d="M86.38 80.75C86.38 80.75 88.63 85.82 97.27 91.45C104.6 96.23 108.16 99.15 113.23 100.93C118.3 102.71 118.49 103.18 118.3 104.12C118.11 105.06 110.23 111.16 101.59 110.41C92.96 109.66 88.83 106.28 86.2 104.5C83.57 102.72 78.6 90.14 78.6 90.14L86.38 80.75V80.75Z" fill="#0182AB"/>
<path d="M66.34 41.84C66.34 41.84 54.37 45.36 49.12 53.34C44.72 60.02 45.11 71.38 49.59 79.81C55.13 90.23 66.58 97.64 72.68 100.46C78.78 103.28 87.13 104.68 90.79 104.31C94.45 103.94 87.51 78.69 80.84 65.17C74.34 51.98 66.34 41.84 66.34 41.84Z" fill="#198ED0"/>
<defs>
<linearGradient id="paint0_linear" x1="46.854" y1="97.057" x2="65.857" y2="33.649" gradientUnits="userSpaceOnUse">
<stop offset="0.136" stop-color="#79B7DA"/>
<stop offset="0.304" stop-color="#57B8CD"/>
<stop offset="0.634" stop-color="#19B5AC"/>
<stop offset="0.791" stop-color="#01ABA1"/>
</linearGradient>
</defs>
</svg>
