<svg width="34" height="34" viewBox="0 0 34 34" fill="none" xmlns="http://www.w3.org/2000/svg">
<path d="M7.19244 13.3973C7.19244 12.2951 7.38511 11.2539 7.76478 10.282C8.12752 9.3381 8.66645 8.47177 9.35286 7.72919C10.0379 6.99636 10.8218 6.36267 11.6819 5.84644C12.5643 5.31257 13.5197 4.90981 14.518 4.65077C15.5284 4.38546 16.5688 4.25166 17.6134 4.25269C19.227 4.25269 20.7287 4.59411 22.1213 5.27411C23.4957 5.94171 24.6655 6.96624 25.5085 8.24061C26.3784 9.53686 26.8104 11.0031 26.8104 12.6379C26.8104 13.6183 26.7141 14.5774 26.5172 15.5152C26.3238 16.4525 26.0165 17.3626 25.602 18.2253C25.207 19.0603 24.6904 19.8323 24.0692 20.516C23.4448 21.1889 22.6887 21.7261 21.8479 22.0942C20.935 22.4943 19.9474 22.6956 18.9508 22.6849C18.258 22.6849 17.5667 22.522 16.8839 22.1948C16.201 21.8689 15.7109 21.4213 15.4162 20.8475C15.3128 21.2456 15.1711 21.8208 14.9827 22.573C14.8014 23.3239 14.6795 23.8084 14.6257 24.0279C14.569 24.2461 14.4642 24.6102 14.3112 25.1145C14.2074 25.4876 14.0743 25.8519 13.9131 26.2039L13.4258 27.1588C13.215 27.5685 12.9794 27.965 12.7203 28.3459C12.4639 28.7171 12.1465 29.1605 11.7683 29.6705L11.5572 29.7456L11.4169 29.5926C11.2654 27.9875 11.1874 27.027 11.1874 26.7097C11.1874 25.7704 11.2994 24.7164 11.5204 23.5463C11.7371 22.3775 12.0799 20.9084 12.5404 19.1419C13.0008 17.3767 13.2643 16.3383 13.3351 16.0309C13.0107 15.3693 12.8464 14.5051 12.8464 13.4426C12.8464 12.594 13.1113 11.7993 13.6425 11.0513C14.1752 10.3061 14.8481 9.93352 15.6641 9.93352C16.2889 9.93352 16.7734 10.1404 17.1204 10.5554C17.4689 10.9691 17.6389 11.4904 17.6389 12.1265C17.6389 12.8009 17.4151 13.7769 16.9646 15.0534C16.5141 16.3312 16.2903 17.2846 16.2903 17.9179C16.2903 18.5596 16.5198 19.0965 16.9788 19.5173C17.4317 19.9382 18.0308 20.1664 18.649 20.1534C19.21 20.1534 19.7299 20.0259 20.213 19.7694C20.6886 19.5205 21.1002 19.1652 21.4158 18.731C22.1032 17.7879 22.5932 16.7159 22.8565 15.5789C22.9925 14.9811 23.0974 14.413 23.1625 13.8789C23.2319 13.342 23.2617 12.8349 23.2617 12.3532C23.2617 10.5866 22.7007 9.20961 21.5858 8.22361C20.4652 7.23761 19.006 6.74744 17.2111 6.74744C15.1697 6.74744 13.4626 7.40761 12.0955 8.73219C10.727 10.0525 10.0385 11.7313 10.0385 13.767C10.0385 14.2161 10.1065 14.6496 10.2354 15.0689C10.3615 15.4869 10.4989 15.8198 10.6477 16.0663C10.795 16.3085 10.9339 16.5451 11.0599 16.7633C11.1874 16.9814 11.254 17.1373 11.254 17.2308C11.254 17.5169 11.1789 17.8895 11.0274 18.3499C10.8701 18.8104 10.6845 19.0399 10.4607 19.0399C10.4394 19.0399 10.3516 19.0243 10.1986 18.9917C9.66872 18.8335 9.19019 18.5378 8.81169 18.1346C8.40998 17.7168 8.09295 17.2251 7.87811 16.6868C7.66388 16.1504 7.49702 15.5962 7.37944 15.0307C7.25241 14.4956 7.18964 13.9472 7.19244 13.3973V13.3973Z" fill="#5A6E77"/>
</svg>
