<svg width="115" height="115" viewBox="0 0 115 115" fill="none" xmlns="http://www.w3.org/2000/svg">
<path d="M15.2603 34.9371C15.7715 37.0649 17.9108 38.3753 20.0385 37.8641C22.1663 37.3529 23.4767 35.2136 22.9655 33.0859C22.4543 30.9582 20.3151 29.6477 18.1873 30.1589C16.0596 30.6701 14.7491 32.8094 15.2603 34.9371Z" stroke="black" stroke-width="2"/>
<path d="M46.0813 27.5322C46.5925 29.6599 48.7318 30.9704 50.8595 30.4592C52.9873 29.948 54.2977 27.8087 53.7865 25.6809C53.2753 23.5532 51.136 22.2427 49.0083 22.7539C46.8805 23.2651 45.5701 25.4044 46.0813 27.5322Z" stroke="black" stroke-width="2"/>
<path d="M76.9022 20.1272C77.4134 22.255 79.5527 23.5655 81.6804 23.0543C83.8082 22.543 85.1187 20.4038 84.6075 18.276C84.0963 16.1483 81.957 14.8378 79.8292 15.349C77.7015 15.8602 76.391 17.9995 76.9022 20.1272Z" stroke="black" stroke-width="2"/>
<path d="M22.6652 65.758C23.1764 67.8858 25.3157 69.1963 27.4435 68.6851C29.5712 68.1739 30.8817 66.0346 30.3705 63.9068C29.8593 61.7791 27.72 60.4686 25.5922 60.9798C23.4645 61.491 22.154 63.6303 22.6652 65.758Z" stroke="black" stroke-width="2"/>
<path d="M53.4862 58.3531C53.9974 60.4809 56.1367 61.7913 58.2644 61.2801C60.3922 60.7689 61.7026 58.6297 61.1914 56.5019C60.6802 54.3742 58.5409 53.0637 56.4132 53.5749C54.2854 54.0861 52.975 56.2254 53.4862 58.3531Z" stroke="black" stroke-width="2"/>
<path d="M84.3071 50.9482C84.8183 53.076 86.9576 54.3864 89.0854 53.8752C91.2131 53.364 92.5236 51.2247 92.0124 49.097C91.5012 46.9693 89.3619 45.6588 87.2341 46.17C85.1064 46.6812 83.7959 48.8205 84.3071 50.9482Z" stroke="black" stroke-width="2"/>
<path d="M30.0702 96.579C30.5814 98.7067 32.7206 100.017 34.8484 99.506C36.9761 98.9948 38.2866 96.8555 37.7754 94.7277C37.2642 92.6 35.1249 91.2895 32.9972 91.8007C30.8694 92.3119 29.559 94.4512 30.0702 96.579Z" stroke="black" stroke-width="2"/>
<path d="M60.8911 89.1741C61.4023 91.3018 63.5416 92.6123 65.6693 92.1011C67.7971 91.5899 69.1075 89.4506 68.5963 87.3228C68.0851 85.1951 65.9458 83.8846 63.8181 84.3958C61.6904 84.907 60.3799 87.0463 60.8911 89.1741Z" stroke="black" stroke-width="2"/>
<path d="M91.712 81.7692C92.2233 83.8969 94.3625 85.2074 96.4903 84.6962C98.618 84.185 99.9285 82.0457 99.4173 79.9179C98.9061 77.7902 96.7668 76.4797 94.6391 76.9909C92.5113 77.5021 91.2008 79.6414 91.712 81.7692Z" stroke="black" stroke-width="2"/>
</svg>
