<svg width="34" height="34" viewBox="0 0 34 34" fill="none" xmlns="http://www.w3.org/2000/svg">
<path d="M27.8134 11.3291C27.8318 11.577 27.8318 11.8235 27.8318 12.07C27.8318 19.6138 22.0901 28.3064 11.5968 28.3064C8.36401 28.3064 5.36068 27.37 2.83334 25.7437C3.29234 25.7961 3.73434 25.8145 4.21176 25.8145C6.78017 25.8207 9.27584 24.9619 11.2965 23.3764C10.1057 23.3549 8.95133 22.962 7.9946 22.2526C7.03787 21.5433 6.32654 20.5529 5.95993 19.4197C6.31268 19.4721 6.66684 19.5075 7.03801 19.5075C7.54943 19.5075 8.06368 19.4367 8.54109 19.3134C7.24875 19.0525 6.08668 18.352 5.25247 17.3311C4.41826 16.3101 3.96341 15.0318 3.96526 13.7134V13.6425C4.72601 14.0661 5.60859 14.331 6.54359 14.3664C5.7603 13.8459 5.11803 13.1396 4.67407 12.3106C4.23012 11.4815 3.99829 10.5554 3.99926 9.61494C3.99926 8.55527 4.28118 7.58344 4.77559 6.73627C6.20946 8.50005 7.99781 9.94298 10.0248 10.9716C12.0518 12.0003 14.2723 12.5917 16.5424 12.7075C16.4546 12.2825 16.4008 11.8419 16.4008 11.3999C16.4004 10.6505 16.5477 9.90827 16.8344 9.21578C17.121 8.52328 17.5413 7.89408 18.0713 7.36412C18.6012 6.83416 19.2304 6.41385 19.9229 6.12721C20.6154 5.84058 21.3576 5.69323 22.1071 5.6936C23.7504 5.6936 25.2337 6.3821 26.2763 7.4956C27.5539 7.24856 28.7789 6.7822 29.8973 6.11719C29.4715 7.43584 28.5795 8.554 27.3884 9.26219C28.5215 9.13296 29.6288 8.835 30.6737 8.37819C29.8933 9.51591 28.9263 10.5136 27.8134 11.3291V11.3291Z" fill="#5A6E77"/>
</svg>
