<svg width="247" height="184" viewBox="0 0 247 184" fill="none" xmlns="http://www.w3.org/2000/svg">
<g clip-path="url(#clip0)">
<path d="M206.167 174.316H197.092V184H206.167V174.316Z" fill="#F0F0F0"/>
<path d="M247 81.3474C247.004 95.9501 243.757 110.285 237.601 122.847C231.446 135.408 222.607 145.734 212.014 152.739C211.414 153.136 210.805 153.524 210.194 153.898C207.927 155.296 205.595 156.533 203.209 157.604C202.259 158.037 201.299 158.439 200.33 158.811C200.236 158.85 200.14 158.889 200.047 158.921C190.55 162.568 180.501 163.612 170.629 161.977C160.757 160.342 151.31 156.07 142.974 149.469C141.855 148.585 140.76 147.662 139.688 146.7C139.082 146.154 138.484 145.599 137.895 145.028C136.227 143.426 134.625 141.729 133.091 139.937C126.567 132.357 121.378 123.259 117.838 113.19C114.297 103.121 112.478 92.2892 112.49 81.3474C112.49 36.4191 142.6 0 179.745 0C216.89 0 247 36.4191 247 81.3474Z" fill="#F2F2F2"/>
<path d="M195.806 119.309L194.29 126.243L200.047 158.921C184.573 164.817 167.861 163.777 152.968 155.993L157.463 133.2L157.612 120.836L158.101 80.069L158.223 79.9916C158.231 79.9859 158.239 79.9816 158.247 79.9787L169.697 72.8672L189.452 72.27L204.192 80.9535L204.08 81.4603L195.806 119.309Z" fill="#3F3D56"/>
<path d="M203.883 178.881C203.429 178.228 203.1 177.463 202.917 176.639C202.735 175.815 202.704 174.952 202.826 174.112C202.949 173.272 203.223 172.475 203.628 171.776C204.033 171.078 204.56 170.496 205.171 170.07L201.965 149.699L210.188 153.844L211.973 172.554C212.495 173.843 212.609 175.32 212.292 176.704C211.975 178.088 211.249 179.283 210.252 180.063C209.254 180.843 208.055 181.154 206.882 180.936C205.708 180.718 204.641 179.987 203.883 178.881Z" fill="#9E616A"/>
<path d="M201.22 81.5875L203.33 80.757C203.33 80.757 210.024 85.953 209.387 98.5153C209.387 98.5153 209.638 105.016 209.398 109.342C209.124 114.304 212.806 163.615 212.806 163.615H200.879L195.767 118.96L201.22 81.5875Z" fill="#3F3D56"/>
<path d="M194.302 49.9801C194.302 53.2561 193.499 56.4585 191.994 59.1823C190.489 61.9062 188.35 64.0292 185.848 65.2828C183.346 66.5365 180.592 66.8645 177.936 66.2254C175.28 65.5863 172.84 64.0088 170.924 61.6923C169.009 59.3759 167.705 56.4245 167.177 53.2115C166.648 49.9985 166.919 46.6681 167.956 43.6415C168.992 40.6149 170.748 38.0281 173 36.208C175.252 34.388 177.899 33.4166 180.608 33.4166H180.608C182.401 33.4111 184.179 33.8331 185.838 34.6584C187.497 35.4838 189.005 36.6962 190.277 38.2266C191.548 39.757 192.558 41.5754 193.249 43.5779C193.939 45.5804 194.297 47.7278 194.302 49.8976C194.302 49.9251 194.302 49.9526 194.302 49.9801Z" fill="#9E616A"/>
<path d="M166.959 27.7322C168.563 23.5599 171.668 24.3848 174.383 25.7991C177.821 24.8767 181.091 22.115 184.795 23.7482C188.444 30.1676 200.696 28.279 198.089 38.7298C198.086 41.234 201.985 39.7764 201.304 43.8777C203.37 51.7708 193.849 66.719 188.382 63.5712C189.734 60.5745 192.822 53.768 188.139 53.0929C178.063 64.4322 187.099 31.5002 174.439 41.0774C170.248 45.7173 164.509 32.3733 166.959 27.7322Z" fill="#2F2E41"/>
<path d="M187.915 160.598L166.055 155.361L171.66 121.131C179.395 124.67 186.681 126.415 193.52 126.368C187.543 136.969 184.829 148.352 187.915 160.598Z" fill="#E4E4E4"/>
<path d="M184.736 162.609L162.877 157.372C161.082 141.865 162.713 130.189 168.482 123.142C176.216 126.68 183.503 128.426 190.341 128.378C186.729 139.267 184.828 150.876 184.736 162.609Z" fill="#5F8BCC"/>
<path d="M170.253 153.074C170.166 152.227 169.927 151.414 169.553 150.691C169.178 149.968 168.677 149.353 168.084 148.89C167.492 148.427 166.823 148.126 166.124 148.01C165.426 147.893 164.714 147.963 164.041 148.215L153.889 131.504L150.799 141.612L160.913 155.931C161.338 157.272 162.155 158.379 163.209 159.04C164.263 159.701 165.481 159.872 166.632 159.52C167.784 159.168 168.788 158.317 169.455 157.129C170.123 155.941 170.406 154.498 170.253 153.074Z" fill="#9E616A"/>
<path d="M161.15 80.9507L159.312 79.4485C159.312 79.4485 148.369 80.6808 146.117 92.9685C146.117 92.9685 144.472 100.351 143.715 104.59C143.327 106.769 138.141 127.832 138.141 127.832L155.725 151.074L160.529 142.358L155.725 127.832L161.15 80.9507Z" fill="#3F3D56"/>
<path d="M9.0741 40.8412H0V50.5254H9.0741V40.8412Z" fill="#5F8BCC"/>
<path d="M28.5567 79.5781H19.4826V89.2623H28.5567V79.5781Z" fill="#5F8BCC"/>
<path d="M42.7016 145.754H33.6275V155.438H42.7016V145.754Z" fill="#5F8BCC"/>
<path d="M33.6934 18.6094C33.4244 18.6094 33.1665 18.7386 32.9763 18.9687C32.7861 19.1987 32.6792 19.5107 32.6792 19.8361C32.6792 20.1614 32.7861 20.4734 32.9763 20.7035C33.1665 20.9335 33.4244 21.0628 33.6934 21.0628H107.741C108.01 21.062 108.267 20.9325 108.457 20.7025C108.647 20.4725 108.753 20.1609 108.753 19.8361C108.753 19.5112 108.647 19.1996 108.457 18.9697C108.267 18.7397 108.01 18.6101 107.741 18.6094H33.6934Z" fill="#E4E4E4"/>
<path d="M33.6934 25.9697C33.5602 25.9692 33.4281 26.0005 33.3049 26.0618C33.1816 26.1231 33.0695 26.2131 32.9751 26.3268C32.8806 26.4405 32.8056 26.5756 32.7543 26.7244C32.703 26.8731 32.6765 27.0327 32.6762 27.1938C32.6759 27.355 32.7019 27.5147 32.7527 27.6637C32.8034 27.8128 32.878 27.9482 32.972 28.0624C33.0661 28.1766 33.1779 28.2672 33.3009 28.3291C33.424 28.391 33.5559 28.4229 33.6892 28.4231H80.503C80.772 28.4231 81.03 28.2939 81.2202 28.0638C81.4104 27.8338 81.5172 27.5218 81.5172 27.1964C81.5172 26.8711 81.4104 26.5591 81.2202 26.329C81.03 26.099 80.772 25.9697 80.503 25.9697H33.6934Z" fill="#E4E4E4"/>
<path d="M24.0856 106.736C23.8166 106.736 23.5586 106.865 23.3684 107.095C23.1782 107.325 23.0714 107.637 23.0714 107.962C23.0714 108.288 23.1782 108.6 23.3684 108.83C23.5586 109.06 23.8166 109.189 24.0856 109.189H98.1336C98.4021 109.188 98.6595 109.059 98.8492 108.829C99.0389 108.599 99.1454 108.287 99.1454 107.962C99.1454 107.638 99.0389 107.326 98.8492 107.096C98.6595 106.866 98.4021 106.736 98.1336 106.736H24.0856Z" fill="#E4E4E4"/>
<path d="M24.0856 114.096C23.9523 114.096 23.8203 114.127 23.697 114.188C23.5738 114.249 23.4617 114.339 23.3672 114.453C23.2727 114.567 23.1977 114.702 23.1464 114.851C23.0952 114.999 23.0686 115.159 23.0683 115.32C23.0681 115.481 23.094 115.641 23.1448 115.79C23.1956 115.939 23.2701 116.075 23.3642 116.189C23.4583 116.303 23.57 116.394 23.6931 116.455C23.8161 116.517 23.9481 116.549 24.0813 116.549H70.8952C71.1642 116.549 71.4221 116.42 71.6123 116.19C71.8025 115.96 71.9094 115.648 71.9094 115.323C71.9094 114.997 71.8025 114.685 71.6123 114.455C71.4221 114.225 71.1642 114.096 70.8952 114.096H24.0856Z" fill="#E4E4E4"/>
<path d="M66.2534 169.683C65.9844 169.683 65.7264 169.812 65.5362 170.042C65.346 170.272 65.2392 170.584 65.2392 170.91C65.2392 171.235 65.346 171.547 65.5362 171.777C65.7264 172.007 65.9844 172.137 66.2534 172.137H140.301C140.57 172.136 140.827 172.006 141.017 171.776C141.207 171.546 141.313 171.235 141.313 170.91C141.313 170.585 141.207 170.273 141.017 170.043C140.827 169.813 140.57 169.684 140.301 169.683H66.2534Z" fill="#E4E4E4"/>
<path d="M66.2534 177.043C66.1201 177.043 65.9881 177.074 65.8648 177.136C65.7416 177.197 65.6295 177.287 65.535 177.401C65.4406 177.514 65.3655 177.649 65.3143 177.798C65.263 177.947 65.2364 178.106 65.2361 178.268C65.2359 178.429 65.2619 178.588 65.3126 178.737C65.3634 178.887 65.4379 179.022 65.532 179.136C65.6261 179.25 65.7378 179.341 65.8609 179.403C65.9839 179.465 66.1159 179.497 66.2491 179.497H113.063C113.332 179.497 113.59 179.368 113.78 179.138C113.97 178.908 114.077 178.596 114.077 178.27C114.077 177.945 113.97 177.633 113.78 177.403C113.59 177.173 113.332 177.043 113.063 177.043H66.2534Z" fill="#E4E4E4"/>
<path d="M4.26698 45.7272C6.44083 45.1498 8.49728 44.0525 10.3154 42.4998C12.1335 40.9471 13.6766 38.9704 14.854 36.6859C15.5224 35.387 16.0611 33.9969 16.4588 32.5446C16.4889 32.4243 16.4792 32.2947 16.4317 32.1829C16.3843 32.0712 16.3028 31.9861 16.2045 31.9456C16.1062 31.9051 15.9987 31.9123 15.9047 31.9658C15.8108 32.0193 15.7376 32.1148 15.7007 32.2322C15.0183 34.6596 13.9411 36.8973 12.5327 38.8134C11.1243 40.7295 9.41312 42.2854 7.49994 43.3894C6.42192 44.0124 5.28636 44.4778 4.11727 44.7759C3.61298 44.9045 3.76162 45.8561 4.26698 45.7272Z" fill="#3F3D56"/>
<path d="M12.0679 34.399C13.5112 33.4159 14.9544 32.4328 16.3977 31.4497C16.4646 31.4044 16.6518 31.2329 16.7217 31.2534C16.6656 31.2369 16.7165 31.2872 16.7181 31.3485C16.7204 31.431 16.729 31.5149 16.7315 31.598C16.7472 32.1078 16.7549 32.6181 16.7666 33.1281L16.8337 36.0608C16.8478 36.6781 17.6469 36.7515 17.6326 36.127L17.5538 32.6842C17.5357 31.8952 17.6989 30.1452 16.642 30.2964C16.2606 30.351 15.908 30.6742 15.5827 30.8958L14.2649 31.7934L11.7236 33.5246C11.276 33.8294 11.6185 34.7052 12.0679 34.399V34.399Z" fill="#3F3D56"/>
<path d="M24.1018 84.3861C21.95 85.0692 19.9328 86.2656 18.1688 87.9051C16.4047 89.5445 14.9294 91.5939 13.8295 93.9328C13.2051 95.2622 12.7133 96.6766 12.3646 98.1462C12.3405 98.2684 12.3565 98.3972 12.4094 98.5053C12.4622 98.6135 12.5477 98.6926 12.6478 98.726C12.7479 98.7594 12.8549 98.7444 12.9461 98.6843C13.0373 98.6241 13.1056 98.5235 13.1366 98.4037C13.7409 95.9443 14.746 93.6561 16.0928 91.6739C17.4396 89.6917 19.1008 88.0557 20.9785 86.8622C22.0359 86.1895 23.1559 85.6718 24.3146 85.3199C24.8139 85.1675 24.6023 84.2333 24.1018 84.3861L24.1018 84.3861Z" fill="#3F3D56"/>
<path d="M16.6778 96.0844L12.4939 99.2044C12.4222 99.2578 12.3517 99.3162 12.2771 99.3637C12.203 99.4109 12.1268 99.4095 12.1747 99.4663C12.1101 99.3896 12.1266 99.1052 12.1218 99.0183L12.0403 97.5547L11.8773 94.6275C11.8429 94.009 11.0419 94.0043 11.0766 94.6275L11.268 98.0638C11.3115 98.8462 11.191 100.466 12.1814 100.4C12.6223 100.371 13.0424 99.9329 13.4038 99.6634L14.5992 98.772L17.082 96.9206C17.5198 96.5941 17.1181 95.7561 16.6778 96.0844V96.0844Z" fill="#3F3D56"/>
<path d="M37.8696 150.204C39.9217 150.854 41.8454 151.994 43.5274 153.557C45.2095 155.12 46.6158 157.075 47.6634 159.306C48.2541 160.562 48.7187 161.899 49.0476 163.288C49.0787 163.408 49.147 163.508 49.2382 163.568C49.3294 163.629 49.4363 163.644 49.5364 163.61C49.6365 163.577 49.722 163.498 49.7749 163.39C49.8277 163.281 49.8438 163.153 49.8196 163.03C49.188 160.45 48.1364 158.049 46.7265 155.968C45.3166 153.886 43.577 152.167 41.6098 150.91C40.4918 150.197 39.3078 149.646 38.0825 149.27C37.5827 149.118 37.3695 150.051 37.8696 150.204Z" fill="#3F3D56"/>
<path d="M45.1023 161.805L47.585 163.656L48.7804 164.548C49.1427 164.818 49.5612 165.255 50.0028 165.284C50.9929 165.35 50.8727 163.731 50.9163 162.948L51.1076 159.512C51.1422 158.89 50.3414 158.892 50.3069 159.512L50.144 162.439L50.066 163.839C50.06 163.946 50.0832 164.261 50.0095 164.35C50.0621 164.287 50.0073 164.317 49.9485 164.274C49.8631 164.211 49.7756 164.152 49.6903 164.089L45.5064 160.969C45.0665 160.641 44.664 161.478 45.1023 161.805Z" fill="#3F3D56"/>
<path d="M18.1482 27.6061C20.2118 27.6061 21.8846 25.5827 21.8846 23.0868C21.8846 20.5909 20.2118 18.5675 18.1482 18.5675C16.0846 18.5675 14.4118 20.5909 14.4118 23.0868C14.4118 25.5827 16.0846 27.6061 18.1482 27.6061Z" fill="#5F8BCC"/>
<path d="M11.743 116.162C13.8065 116.162 15.4793 114.139 15.4793 111.643C15.4793 109.147 13.8065 107.123 11.743 107.123C9.6794 107.123 8.00656 109.147 8.00656 111.643C8.00656 114.139 9.6794 116.162 11.743 116.162Z" fill="#5F8BCC"/>
<path d="M52.0426 179.003C54.1062 179.003 55.779 176.979 55.779 174.483C55.779 171.987 54.1062 169.964 52.0426 169.964C49.9791 169.964 48.3062 171.987 48.3062 174.483C48.3062 176.979 49.9791 179.003 52.0426 179.003Z" fill="#5F8BCC"/>
</g>
<defs>
<clipPath id="clip0">
<rect width="247" height="184" fill="white"/>
</clipPath>
</defs>
</svg>
