<svg width="245" height="187" viewBox="0 0 245 187" fill="none" xmlns="http://www.w3.org/2000/svg">
<g clip-path="url(#clip0)">
<path d="M119.159 26.4129C116.708 29.7719 114.823 33.5095 113.578 37.4776C112.467 40.9411 111.637 44.4888 111.097 48.086C110.833 47.9819 110.573 47.8698 110.317 47.7457C107.963 46.6031 106.067 44.6957 104.937 42.3351C103.807 39.9745 103.511 37.3003 104.097 34.7495C104.682 32.1986 106.115 29.9219 108.162 28.2914C110.208 26.6608 112.746 25.7728 115.362 25.7724C116.345 25.7708 117.324 25.8959 118.275 26.1446C118.575 26.2207 118.871 26.3088 119.159 26.4129Z" fill="#FF6584"/>
<path d="M12.0578 160.111C12.8529 153.715 16.815 147.412 22.9121 145.331C20.5076 151.914 20.5081 159.137 22.9136 165.721C23.8505 168.256 25.1564 170.979 24.2752 173.534C23.7269 175.124 22.3855 176.341 20.8861 177.102C19.3866 177.862 17.7224 178.225 16.0791 178.58L15.7557 178.848C13.147 172.954 11.2628 166.508 12.0578 160.111Z" fill="#E6E6E6"/>
<path d="M22.9727 145.452C19.422 149.432 17.2151 154.431 16.6656 159.738C16.527 160.878 16.5689 162.033 16.7898 163.16C17.0405 164.252 17.5786 165.256 18.3483 166.068C19.0508 166.841 19.8587 167.549 20.3613 168.479C20.6115 168.958 20.7576 169.486 20.7899 170.026C20.8222 170.566 20.74 171.107 20.5487 171.613C20.105 172.886 19.2304 173.924 18.3398 174.909C17.3511 176.003 16.3067 177.124 15.8864 178.574C15.8355 178.75 15.5659 178.661 15.6168 178.485C16.348 175.962 18.7962 174.529 19.9637 172.256C20.5085 171.195 20.7372 169.964 20.2265 168.845C19.7799 167.866 18.9474 167.134 18.2294 166.359C17.4669 165.577 16.9073 164.62 16.5996 163.572C16.322 162.46 16.2357 161.308 16.3443 160.167C16.5477 157.593 17.1544 155.068 18.1419 152.683C19.254 149.955 20.8242 147.437 22.7848 145.238C22.9062 145.102 23.0933 145.316 22.9727 145.452H22.9727Z" fill="white"/>
<path d="M16.742 158.019C15.8646 157.805 15.0915 157.287 14.5607 156.556C14.03 155.826 13.7761 154.93 13.8445 154.029C13.859 153.847 14.1427 153.861 14.1282 154.043C14.063 154.882 14.2995 155.716 14.7951 156.396C15.2908 157.075 16.0128 157.555 16.831 157.749C17.0088 157.791 16.9187 158.061 16.742 158.019H16.742Z" fill="white"/>
<path d="M17.9406 165.724C19.5253 164.777 20.6951 163.268 21.2168 161.496C21.2684 161.321 21.5379 161.41 21.4865 161.585C20.9401 163.428 19.7195 164.996 18.0683 165.977C17.9109 166.071 17.784 165.817 17.9406 165.724Z" fill="white"/>
<path d="M19.5174 150.224C19.8397 150.377 20.195 150.448 20.5514 150.43C20.9078 150.412 21.2541 150.305 21.5592 150.12C21.7154 150.025 21.8421 150.279 21.6869 150.374C21.3488 150.577 20.9662 150.694 20.5725 150.715C20.1788 150.736 19.786 150.66 19.4283 150.494C19.3933 150.481 19.3645 150.455 19.3477 150.422C19.3309 150.388 19.3275 150.35 19.338 150.314C19.35 150.278 19.3756 150.249 19.4091 150.232C19.4427 150.215 19.4816 150.212 19.5173 150.224H19.5174Z" fill="white"/>
<path d="M41.4971 156.756C41.4013 156.818 41.3055 156.88 41.2095 156.945C39.9254 157.79 38.7121 158.738 37.5814 159.779C37.4927 159.858 37.404 159.94 37.3178 160.021C34.6205 162.559 32.4177 165.576 30.8212 168.919C30.1871 170.25 29.6552 171.627 29.2299 173.038C28.6428 174.988 28.1611 177.148 26.9989 178.742C26.8795 178.91 26.7498 179.07 26.6106 179.222H16.1072C16.0833 179.21 16.0593 179.2 16.0353 179.188L15.6159 179.207C15.6328 179.133 15.6518 179.056 15.6687 178.982C15.6783 178.939 15.6902 178.896 15.6998 178.853C15.707 178.824 15.7142 178.795 15.719 178.769C15.7214 178.759 15.7238 178.749 15.7262 178.742C15.731 178.716 15.7382 178.692 15.743 178.668C15.8484 178.239 15.9571 177.81 16.0689 177.38C16.0689 177.378 16.0689 177.378 16.0712 177.376C16.8921 174.097 18.0987 170.928 19.6658 167.934C19.7138 167.845 19.7617 167.754 19.8145 167.665C20.5401 166.34 21.3729 165.076 22.3044 163.886C22.8165 163.237 23.3612 162.613 23.9363 162.018C25.4254 160.485 27.1462 159.195 29.0358 158.197C32.803 156.207 37.1644 155.444 41.1904 156.66C41.2934 156.691 41.3941 156.722 41.4971 156.756Z" fill="#E6E6E6"/>
<path d="M41.4735 156.889C36.2432 157.928 31.4731 160.59 27.8409 164.496C27.0441 165.323 26.3825 166.271 25.8805 167.304C25.4241 168.326 25.2495 169.452 25.375 170.565C25.4712 171.604 25.69 172.657 25.5319 173.702C25.443 174.235 25.2424 174.744 24.9432 175.195C24.644 175.646 24.253 176.028 23.7957 176.317C22.6751 177.066 21.3522 177.368 20.0483 177.618C18.6005 177.896 17.0923 178.162 15.8839 179.067C15.7375 179.176 15.5761 178.943 15.7223 178.833C17.8245 177.259 20.6418 177.589 22.9416 176.478C24.0147 175.959 24.9382 175.114 25.204 173.913C25.4365 172.862 25.2118 171.777 25.1053 170.725C24.967 169.641 25.0959 168.54 25.4809 167.518C25.9286 166.463 26.5526 165.491 27.3262 164.645C29.0372 162.713 31.0413 161.062 33.265 159.753C35.7946 158.244 38.5634 157.18 41.4517 156.606C41.6305 156.57 41.6511 156.854 41.4735 156.889H41.4735Z" fill="white"/>
<path d="M28.9365 163.17C28.3642 162.471 28.0587 161.592 28.0747 160.688C28.0907 159.785 28.427 158.917 29.0237 158.239C29.1449 158.102 29.363 158.284 29.2417 158.421C28.6849 159.052 28.3717 159.86 28.3585 160.701C28.3453 161.542 28.6331 162.361 29.1699 163.008C29.2864 163.149 29.0523 163.31 28.9365 163.17Z" fill="white"/>
<path d="M25.2569 170.044C27.0918 170.243 28.9342 169.742 30.4167 168.642C30.5634 168.533 30.725 168.767 30.5783 168.876C29.0335 170.018 27.1152 170.535 25.2061 170.324C25.0242 170.303 25.0759 170.024 25.2569 170.044Z" fill="white"/>
<path d="M35.8429 158.618C36.0081 158.935 36.2492 159.205 36.5446 159.405C36.8401 159.605 37.1806 159.729 37.5357 159.765C37.7178 159.783 37.6659 160.063 37.4849 160.045C37.0929 160.003 36.717 159.866 36.39 159.646C36.0631 159.425 35.7952 159.128 35.6095 158.78C35.5893 158.748 35.5817 158.711 35.5884 158.674C35.5951 158.637 35.6154 158.604 35.6454 158.582C35.6764 158.561 35.7146 158.553 35.7516 158.559C35.7885 158.566 35.8214 158.587 35.8429 158.618Z" fill="white"/>
<path d="M122.877 164.052C118.513 159.311 116.267 152.213 118.62 146.212C122.087 152.303 127.596 156.971 134.172 159.39C136.711 160.313 139.632 161.076 141.011 163.4C141.869 164.847 141.93 166.657 141.541 168.294C141.152 169.93 140.353 171.435 139.562 172.919L139.557 173.339C133.376 171.521 127.242 168.794 122.877 164.052Z" fill="#E6E6E6"/>
<path d="M118.752 146.244C119.493 151.528 121.879 156.443 125.571 160.293C126.351 161.136 127.259 161.85 128.261 162.41C129.256 162.924 130.369 163.162 131.486 163.1C132.529 163.063 133.592 162.904 134.626 163.121C135.153 163.24 135.65 163.469 136.082 163.794C136.515 164.118 136.875 164.53 137.137 165.003C137.821 166.165 138.048 167.504 138.223 168.821C138.419 170.283 138.598 171.804 139.433 173.062C139.534 173.215 139.292 173.363 139.191 173.211C137.739 171.022 138.228 168.226 137.249 165.866C136.793 164.764 136.001 163.794 134.818 163.46C133.782 163.169 132.687 163.332 131.631 163.378C130.542 163.455 129.451 163.264 128.452 162.822C127.425 162.315 126.491 161.636 125.69 160.816C123.859 158.997 122.325 156.902 121.144 154.606C119.783 151.994 118.877 149.168 118.468 146.25C118.443 146.069 118.727 146.065 118.752 146.244V146.244Z" fill="white"/>
<path d="M124.309 159.124C123.579 159.656 122.684 159.911 121.784 159.844C120.884 159.777 120.036 159.392 119.394 158.757C119.264 158.628 119.458 158.421 119.588 158.55C120.185 159.142 120.974 159.5 121.813 159.561C122.652 159.622 123.484 159.381 124.161 158.881C124.308 158.773 124.455 159.016 124.309 159.124Z" fill="white"/>
<path d="M130.96 163.189C131.262 161.367 130.867 159.498 129.853 157.955C129.753 157.802 129.995 157.654 130.096 157.807C131.148 159.415 131.555 161.36 131.236 163.255C131.206 163.436 130.93 163.368 130.96 163.189Z" fill="white"/>
<path d="M120.158 151.967C120.483 151.82 120.767 151.594 120.983 151.31C121.2 151.027 121.343 150.693 121.399 150.341C121.427 150.16 121.703 150.228 121.675 150.407C121.611 150.797 121.453 151.164 121.214 151.478C120.976 151.793 120.664 152.043 120.306 152.209C120.274 152.228 120.236 152.233 120.199 152.224C120.163 152.215 120.132 152.193 120.111 152.162C120.092 152.13 120.086 152.091 120.094 152.055C120.103 152.018 120.126 151.987 120.158 151.967Z" fill="white"/>
<path d="M139.346 139.408C139.331 139.521 139.317 139.635 139.304 139.75C139.119 141.276 139.057 142.815 139.121 144.351C139.124 144.47 139.129 144.591 139.135 144.709C139.327 148.409 140.205 152.041 141.722 155.42C142.327 156.764 143.033 158.06 143.835 159.297C144.942 161.005 146.279 162.769 146.743 164.687C146.794 164.887 146.832 165.089 146.858 165.294L140.069 173.313C140.045 173.323 140.022 173.335 139.997 173.346L139.741 173.678C139.695 173.617 139.649 173.553 139.603 173.492C139.577 173.457 139.551 173.42 139.525 173.385C139.507 173.361 139.49 173.337 139.473 173.316C139.467 173.308 139.461 173.3 139.457 173.294C139.44 173.273 139.427 173.252 139.412 173.233C139.153 172.875 138.895 172.514 138.64 172.152C138.639 172.15 138.639 172.15 138.638 172.147C136.668 169.401 135.031 166.431 133.76 163.3C133.724 163.206 133.685 163.11 133.652 163.013C133.11 161.602 132.684 160.15 132.379 158.67C132.215 157.859 132.091 157.04 132.009 156.216C131.802 154.088 131.931 151.941 132.391 149.853C133.308 145.691 135.545 141.868 139.074 139.58C139.165 139.521 139.254 139.465 139.346 139.408Z" fill="#E6E6E6"/>
<path d="M139.432 139.512C136.844 144.177 135.791 149.539 136.423 154.837C136.539 155.98 136.834 157.097 137.297 158.148C137.782 159.157 138.528 160.018 139.457 160.642C140.312 161.24 141.256 161.753 141.951 162.549C142.301 162.962 142.559 163.444 142.709 163.964C142.86 164.484 142.899 165.029 142.823 165.565C142.671 166.905 142.046 168.11 141.394 169.267C140.67 170.552 139.898 171.875 139.807 173.383C139.796 173.565 139.513 173.538 139.524 173.355C139.683 170.733 141.755 168.795 142.394 166.321C142.692 165.167 142.645 163.916 141.9 162.936C141.249 162.079 140.276 161.549 139.405 160.951C138.489 160.356 137.733 159.546 137.202 158.592C136.687 157.568 136.349 156.463 136.204 155.326C135.836 152.771 135.872 150.174 136.311 147.63C136.795 144.724 137.773 141.922 139.202 139.345C139.291 139.186 139.52 139.354 139.432 139.512H139.432Z" fill="white"/>
<path d="M136.119 153.143C135.216 153.128 134.348 152.793 133.67 152.197C132.991 151.601 132.547 150.783 132.415 149.889C132.389 149.708 132.669 149.66 132.695 149.841C132.816 150.673 133.23 151.435 133.863 151.989C134.496 152.542 135.306 152.851 136.147 152.86C136.329 152.862 136.301 153.145 136.119 153.143Z" fill="white"/>
<path d="M138.984 160.395C140.321 159.123 141.13 157.393 141.249 155.55C141.261 155.367 141.544 155.395 141.532 155.577C141.404 157.495 140.559 159.293 139.164 160.615C139.031 160.74 138.851 160.52 138.984 160.395Z" fill="white"/>
<path d="M137.112 144.928C137.46 145.007 137.822 144.997 138.165 144.901C138.509 144.805 138.824 144.625 139.08 144.377C139.212 144.25 139.391 144.47 139.261 144.597C138.976 144.869 138.628 145.067 138.249 145.175C137.869 145.282 137.469 145.294 137.084 145.211C137.047 145.206 137.013 145.187 136.99 145.159C136.966 145.13 136.954 145.093 136.956 145.056C136.96 145.018 136.979 144.984 137.008 144.96C137.037 144.936 137.074 144.925 137.112 144.928Z" fill="white"/>
<path d="M80.3123 154.125C84.1775 154.125 87.3108 150.99 87.3108 147.123C87.3108 143.256 84.1775 140.121 80.3123 140.121C76.4472 140.121 73.3138 143.256 73.3138 147.123C73.3138 150.99 76.4472 154.125 80.3123 154.125Z" fill="#F2F2F2"/>
<path d="M75.111 86.6386C76.5487 86.6386 77.7143 85.4724 77.7143 84.0339C77.7143 82.5954 76.5487 81.4292 75.111 81.4292C73.6732 81.4292 72.5077 82.5954 72.5077 84.0339C72.5077 85.4724 73.6732 86.6386 75.111 86.6386Z" fill="#5F8BCC"/>
<path d="M39.3108 115.709C40.7486 115.709 41.9141 114.543 41.9141 113.105C41.9141 111.666 40.7486 110.5 39.3108 110.5C37.8731 110.5 36.7075 111.666 36.7075 113.105C36.7075 114.543 37.8731 115.709 39.3108 115.709Z" fill="#F0F0F0"/>
<path d="M193.367 0H1.07629C0.79108 0.000771295 0.517776 0.114477 0.316104 0.31626C0.114433 0.518043 0.000795078 0.791494 3.05536e-05 1.07685V7.41387C-4.31783e-05 7.69986 0.113206 7.97421 0.314944 8.17681C0.516682 8.37941 0.790455 8.49373 1.07629 8.49472H193.367C193.652 8.49373 193.926 8.37941 194.128 8.17681C194.33 7.97421 194.443 7.69986 194.443 7.41387V1.07685C194.442 0.791491 194.328 0.518036 194.127 0.316254C193.925 0.114471 193.652 0.000770215 193.367 0Z" fill="#5F8BCC"/>
<path d="M6.25158 5.46719C7.09612 5.46719 7.78076 4.7822 7.78076 3.93721C7.78076 3.09222 7.09612 2.40723 6.25158 2.40723C5.40705 2.40723 4.72241 3.09222 4.72241 3.93721C4.72241 4.7822 5.40705 5.46719 6.25158 5.46719Z" fill="white"/>
<path d="M12.0558 5.46719C12.9004 5.46719 13.585 4.7822 13.585 3.93721C13.585 3.09222 12.9004 2.40723 12.0558 2.40723C11.2113 2.40723 10.5266 3.09222 10.5266 3.93721C10.5266 4.7822 11.2113 5.46719 12.0558 5.46719Z" fill="white"/>
<path d="M17.8603 5.46719C18.7048 5.46719 19.3895 4.7822 19.3895 3.93721C19.3895 3.09222 18.7048 2.40723 17.8603 2.40723C17.0157 2.40723 16.3311 3.09222 16.3311 3.93721C16.3311 4.7822 17.0157 5.46719 17.8603 5.46719Z" fill="white"/>
<path d="M187.681 1.89355H180.995C180.864 1.89355 180.739 1.94564 180.646 2.03836C180.553 2.13108 180.501 2.25683 180.501 2.38795C180.501 2.51907 180.553 2.64482 180.646 2.73753C180.739 2.83025 180.864 2.88234 180.995 2.88234H187.681C187.812 2.88234 187.938 2.83025 188.03 2.73753C188.123 2.64482 188.175 2.51907 188.175 2.38795C188.175 2.25683 188.123 2.13108 188.03 2.03836C187.938 1.94564 187.812 1.89355 187.681 1.89355Z" fill="white"/>
<path d="M187.681 3.75098H180.995C180.864 3.75098 180.739 3.80306 180.646 3.89578C180.553 3.9885 180.501 4.11425 180.501 4.24537C180.501 4.37649 180.553 4.50225 180.646 4.59496C180.739 4.68768 180.864 4.73976 180.995 4.73976H187.681C187.812 4.73976 187.938 4.68768 188.03 4.59496C188.123 4.50225 188.175 4.37649 188.175 4.24537C188.175 4.11425 188.123 3.9885 188.03 3.89578C187.938 3.80306 187.812 3.75098 187.681 3.75098Z" fill="white"/>
<path d="M187.681 5.6084H180.995C180.864 5.6084 180.737 5.66069 180.644 5.75378C180.551 5.84687 180.499 5.97314 180.499 6.10479C180.499 6.23644 180.551 6.3627 180.644 6.45579C180.737 6.54888 180.864 6.60118 180.995 6.60118H187.681C187.813 6.60118 187.939 6.54888 188.032 6.45579C188.125 6.3627 188.177 6.23644 188.177 6.10479C188.177 5.97314 188.125 5.84687 188.032 5.75378C187.939 5.66069 187.813 5.6084 187.681 5.6084Z" fill="white"/>
<path d="M7.19143 55.2551C6.63611 55.2569 6.18679 55.9784 6.1879 56.8667C6.189 57.7525 6.63766 58.4702 7.19143 58.472H82.6048C83.1601 58.4702 83.6094 57.7486 83.6083 56.8604C83.6072 55.9745 83.1585 55.2569 82.6048 55.2551H7.19143Z" fill="#E6E6E6"/>
<path d="M7.19143 64.5754C6.63611 64.5772 6.18679 65.2987 6.1879 66.187C6.189 67.0728 6.63766 67.7905 7.19143 67.7923H82.6048C83.1601 67.7905 83.6094 67.069 83.6083 66.1807C83.6072 65.2948 83.1585 64.5772 82.6048 64.5754H7.19143Z" fill="#E6E6E6"/>
<path d="M7.19143 73.783C6.63611 73.7847 6.18679 74.5063 6.1879 75.3946C6.189 76.2804 6.63766 76.998 7.19143 76.9998H55.5976C56.1529 76.998 56.6022 76.2765 56.6011 75.3882C56.6 74.5024 56.1514 73.7847 55.5976 73.783H7.19143Z" fill="#E6E6E6"/>
<path d="M1.76566 176.688C1.79105 176.63 1.82003 176.575 1.84635 176.517C1.89288 176.038 1.76566 176.688 1.76566 176.688Z" fill="#F2F2F2"/>
<path d="M15.4663 169.438C14.5112 169.437 13.5574 169.506 12.6124 169.644L12.476 169.664C9.4519 170.149 6.70871 171.722 4.7617 174.087C2.8147 176.453 1.79785 179.448 1.90217 182.51L1.93831 183.662C1.96214 184.391 1.98752 185.174 2.00844 186.043C2.01094 186.245 2.09309 186.438 2.23702 186.579C2.38095 186.721 2.57501 186.8 2.777 186.8H155.649C166.427 186.686 177.166 186.544 187.566 186.376C189.524 186.382 191.479 186.206 193.405 185.851C196.296 185.259 198.302 184.084 199.539 182.26H199.539C201.077 179.998 201.126 177.15 201.033 173.931C200.843 167.433 200.655 160.607 200.468 153.801C200.302 147.803 200.137 141.821 199.972 136.094C199.87 132.695 199.644 129.695 197.897 127.402C196.003 124.922 192.55 123.665 187.633 123.665C187.573 123.665 187.514 123.665 187.454 123.666C172.044 123.761 156.775 132.941 149.459 146.511C148.617 148.073 147.832 149.746 147.073 151.364C145.992 153.792 144.768 156.153 143.407 158.436C142.698 159.595 141.887 160.689 140.986 161.706C140.926 161.777 140.858 161.853 140.787 161.925C140.622 162.111 140.45 162.29 140.283 162.45C139.359 163.386 138.321 164.203 137.195 164.882L137.086 164.945C137.005 164.995 136.917 165.046 136.828 165.092C136.215 165.433 135.578 165.729 134.921 165.975C132.133 167.04 128.962 167.295 125.497 166.733C122.209 166.166 119.041 165.048 116.126 163.425C112.918 161.668 109.915 159.477 107.01 157.359C105.735 156.428 104.415 155.466 103.097 154.555C102.85 154.383 102.606 154.215 102.359 154.048C100.749 152.961 99.2902 152.063 97.898 151.304C94.6179 149.468 91.0034 148.308 87.2679 147.892C83.4352 147.529 80.0578 148.215 77.2317 149.926C76.4232 150.418 75.6631 150.985 74.9615 151.62C71.6142 154.632 69.5505 159.077 67.5551 163.376C65.0728 168.723 62.5059 174.252 57.4374 177.118C51.5888 180.429 43.0518 179.053 37.012 176.662C35.113 175.909 33.2164 175.044 31.3822 174.207C30.6414 173.869 29.9005 173.531 29.1582 173.2C27.7003 172.548 26.5073 172.048 25.4035 171.626L25.0543 171.492C24.8602 171.419 24.6658 171.346 24.4679 171.276C23.2449 170.826 21.9983 170.443 20.7337 170.129L20.4492 170.057C19.879 169.927 19.3458 169.818 18.8226 169.727L18.6138 169.691C17.5732 169.522 16.5206 169.437 15.4663 169.438Z" fill="#E6E6E6"/>
<path d="M101.131 169.627C98.5866 160.053 104.236 150.722 110.838 144.262C114.357 140.819 118.275 137.827 122.096 134.735C125.762 131.801 129.254 128.655 132.553 125.313C138.923 118.79 144.479 111.335 148.159 102.955C151.658 94.986 153.312 86.3054 152.493 77.6105C151.716 69.3641 148.761 61.2523 143.327 54.9255C142.65 54.1371 141.937 53.3814 141.19 52.6585C140.789 52.269 140.175 52.8823 140.576 53.2724C146.645 59.1681 150.177 67.1579 151.372 75.4699C152.605 84.0419 151.335 92.7808 148.131 100.795C144.719 109.332 139.292 116.95 132.998 123.598C129.829 126.924 126.457 130.052 122.902 132.963C119.106 136.092 115.161 139.048 111.547 142.391C104.885 148.554 98.8969 157.03 99.7195 166.572C99.8153 167.682 100.008 168.781 100.294 169.858C100.328 169.965 100.402 170.056 100.5 170.11C100.599 170.163 100.715 170.177 100.824 170.147C100.932 170.117 101.025 170.046 101.082 169.949C101.139 169.852 101.157 169.737 101.131 169.627Z" fill="#E6E6E6"/>
<path d="M127.773 115.123C127.827 115.222 127.84 115.338 127.81 115.447C127.78 115.555 127.709 115.648 127.612 115.705C127.515 115.762 127.399 115.779 127.29 115.753C127.181 115.726 127.086 115.658 127.025 115.563C126.029 113.854 125.089 112.115 124.204 110.347C123.608 109.146 123.036 107.929 122.5 106.7C116.482 93.0499 113.904 78.1299 114.994 63.25C115.29 59.1794 115.877 55.1353 116.751 51.1485C116.931 50.3398 117.123 49.5312 117.335 48.7306C117.655 48.6785 117.967 48.6105 118.275 48.5304C116.394 55.3518 115.638 62.5455 115.614 69.5831C115.586 77.5438 116.61 85.4734 118.659 93.1657C120.699 100.861 123.764 108.246 127.773 115.123Z" fill="#E6E6E6"/>
<path d="M184.764 91.5845C181.511 98.5861 176.046 104.335 169.916 108.914C162.967 114.106 155.097 117.853 147.298 121.572C146.798 121.812 146.358 121.064 146.862 120.824C148.723 119.935 150.583 119.046 152.432 118.142C159.826 114.511 167.156 110.516 173.345 105.015C179.071 99.9272 183.736 93.5901 185.865 86.1563C188.085 78.4181 187.665 70.0515 185.276 62.4055C183.794 57.7623 181.668 53.3504 178.959 49.2991C178.063 47.942 177.114 46.6223 176.114 45.34C175.386 44.4072 174.634 43.4932 173.857 42.5978C171.321 39.6866 168.562 36.9764 165.607 34.4914C162.533 31.838 159.131 29.5912 155.485 27.8061C151.738 25.9828 147.642 24.9913 143.477 24.8998C139.542 24.8454 135.666 25.8699 132.271 27.8621C129.949 29.2457 127.863 30.9917 126.093 33.0342C125.977 32.742 125.849 32.4538 125.705 32.1735C128.762 28.7909 132.575 26.1328 137.012 24.8718C145.21 22.5419 153.864 25.2761 160.782 29.7997C164.157 32.0532 167.31 34.6242 170.196 37.4777C171.273 38.5226 172.321 39.5994 173.329 40.7083C174.546 42.0373 175.707 43.4131 176.814 44.8356C176.814 44.8356 176.822 44.8396 176.822 44.8436C177.194 45.3199 177.56 45.803 177.918 46.2927C182.596 52.6577 186.089 59.9635 187.481 67.7737C188.905 75.76 188.201 84.1827 184.764 91.5845Z" fill="#E6E6E6"/>
<path d="M179.267 83.1938C176.018 90.1954 170.553 95.9439 164.419 100.524C157.773 105.483 150.287 109.13 142.829 112.689C142.489 112.853 142.145 113.013 141.805 113.178C141.75 113.206 141.69 113.221 141.629 113.224C141.567 113.227 141.506 113.217 141.449 113.194C141.37 113.171 141.299 113.125 141.246 113.062C141.193 112.999 141.16 112.921 141.151 112.839C141.142 112.757 141.157 112.675 141.196 112.602C141.234 112.529 141.293 112.468 141.365 112.429C141.653 112.289 141.945 112.153 142.233 112.017C142.729 111.776 143.221 111.54 143.718 111.304C144.794 110.792 145.867 110.273 146.938 109.747C154.328 106.12 161.662 102.121 167.848 96.6204C173.577 91.5324 178.243 85.1954 180.371 77.7615C182.588 70.0234 182.168 61.6608 179.779 54.0147C178.833 51.014 177.606 48.1095 176.114 45.3398C175.262 43.7546 174.33 42.2054 173.329 40.7082C171.815 38.4348 170.155 36.2619 168.36 34.203C165.826 31.2922 163.069 28.5832 160.114 26.1006C157.039 23.4468 153.635 21.1999 149.987 19.4153C146.243 17.5908 142.148 16.598 137.984 16.505C134.047 16.4507 130.17 17.4751 126.773 19.4674C123.8 21.2549 121.212 23.6158 119.159 26.4129C116.708 29.7719 114.823 33.5095 113.578 37.4776C112.466 40.9411 111.637 44.4888 111.097 48.086C110.446 52.4231 110.119 56.8027 110.117 61.1884C110.091 69.1504 111.115 77.0809 113.162 84.7751C115.204 92.4694 118.269 99.8545 122.276 106.732C122.287 106.75 122.296 106.769 122.304 106.788C122.341 106.889 122.339 107 122.299 107.1C122.259 107.2 122.183 107.281 122.087 107.328C121.991 107.376 121.88 107.385 121.777 107.356C121.673 107.326 121.585 107.26 121.528 107.169C120.531 105.463 119.593 103.725 118.711 101.953C111.487 87.3599 108.305 71.0964 109.497 54.8554C109.673 52.4775 109.946 50.1077 110.317 47.7458C110.577 46.0724 110.89 44.4085 111.257 42.7538C112.106 38.6897 113.456 34.7469 115.278 31.0165C116.136 29.31 117.139 27.6801 118.275 26.1446C121.592 21.6571 126.089 18.0222 131.518 16.481C139.716 14.1472 148.367 16.8813 155.289 21.4049C158.662 23.6605 161.815 26.2314 164.703 29.083C167.515 31.8022 170.097 34.7507 172.421 37.898C174.046 40.1045 175.514 42.4227 176.814 44.8354C176.814 44.8354 176.822 44.8394 176.822 44.8434C177.602 46.2966 178.319 47.7818 178.959 49.299C180.341 52.5349 181.356 55.9162 181.984 59.379C183.412 67.3693 182.708 75.7879 179.267 83.1938Z" fill="#E6E6E6"/>
<path d="M152.505 86.2135C156.333 86.1895 160.033 84.838 162.976 82.3894C165.972 79.8688 167.943 76.3395 168.52 72.4659C168.858 70.276 168.749 68.0401 168.199 65.8936C168.165 65.7861 168.091 65.696 167.993 65.6421C167.894 65.5882 167.778 65.5748 167.669 65.6047C167.561 65.6347 167.468 65.7056 167.411 65.8025C167.354 65.8995 167.336 66.0149 167.362 66.1244C168.29 69.7691 167.871 73.6262 166.184 76.9868C164.888 79.4997 162.926 81.608 160.514 83.082C158.102 84.5559 155.332 85.3388 152.505 85.3453C152.393 85.3492 152.286 85.3966 152.208 85.4776C152.13 85.5586 152.086 85.6668 152.086 85.7794C152.086 85.892 152.13 86.0002 152.208 86.0812C152.286 86.1622 152.393 86.2096 152.505 86.2135Z" fill="#E6E6E6"/>
<path d="M119.92 135.562L117.127 130.642C117.067 130.547 116.972 130.479 116.863 130.452C116.753 130.426 116.638 130.442 116.541 130.499C116.444 130.556 116.372 130.649 116.342 130.757C116.311 130.865 116.324 130.981 116.378 131.081L119.171 136C119.231 136.095 119.326 136.163 119.435 136.19C119.545 136.217 119.66 136.2 119.757 136.143C119.854 136.086 119.926 135.994 119.956 135.885C119.987 135.777 119.974 135.661 119.92 135.562Z" fill="#E6E6E6"/>
<path d="M103.613 35.21C102.777 34.6197 101.863 34.0042 100.84 34.0288C98.3645 34.0883 97.0299 37.7191 94.5571 37.5914C92.9801 37.5099 91.9333 35.9071 90.4649 35.3259C88.5533 34.5693 86.1206 36.049 85.912 38.0953L86.1575 37.8705C93.5884 39.683 101.3 40.0394 108.866 38.9201C107.115 37.6834 105.364 36.4467 103.613 35.21Z" fill="#E6E6E6"/>
<path d="M93.3833 182.901C94.7637 182.901 95.8827 181.781 95.8827 180.4C95.8827 179.019 94.7637 177.9 93.3833 177.9C92.003 177.9 90.884 179.019 90.884 180.4C90.884 181.781 92.003 182.901 93.3833 182.901Z" fill="white"/>
<path d="M100.631 182.901C102.012 182.901 103.131 181.781 103.131 180.4C103.131 179.019 102.012 177.9 100.631 177.9C99.251 177.9 98.132 179.019 98.132 180.4C98.132 181.781 99.251 182.901 100.631 182.901Z" fill="white"/>
<path d="M107.879 182.901C109.26 182.901 110.379 181.781 110.379 180.4C110.379 179.019 109.26 177.9 107.879 177.9C106.499 177.9 105.38 179.019 105.38 180.4C105.38 181.781 106.499 182.901 107.879 182.901Z" fill="white"/>
<path d="M100.654 182.401C101.759 182.401 102.654 181.505 102.654 180.4C102.654 179.295 101.759 178.4 100.654 178.4C99.55 178.4 98.6548 179.295 98.6548 180.4C98.6548 181.505 99.55 182.401 100.654 182.401Z" fill="#3F3D56"/>
<path d="M218.027 181.278H215.287L213.984 170.705H218.027V181.278Z" fill="#FFB6B6"/>
<path d="M219.473 186.027H217.508L217.157 184.171L216.259 186.027H211.049C210.799 186.027 210.556 185.947 210.354 185.799C210.153 185.651 210.005 185.443 209.93 185.204C209.856 184.966 209.86 184.709 209.941 184.473C210.023 184.237 210.177 184.033 210.383 183.891L214.544 181.016V179.139L218.921 179.401L219.473 186.027Z" fill="#2F2E41"/>
<path d="M202.28 178.934L199.701 179.858L194.912 170.344L198.719 168.981L202.28 178.934Z" fill="#FFB6B6"/>
<path d="M205.594 181.621L203.897 182.611L202.659 181.185L202.818 183.241L198.317 185.868C198.101 185.994 197.851 186.047 197.603 186.021C197.354 185.994 197.121 185.889 196.937 185.721C196.752 185.552 196.627 185.329 196.578 185.084C196.529 184.839 196.56 184.584 196.666 184.358L198.812 179.777L197.868 178.156L201.78 176.175L205.594 181.621Z" fill="#2F2E41"/>
<path d="M218.545 174.818H218.512L217.93 155.818C218.307 155.091 218.498 154.282 218.487 153.463C218.475 152.644 218.262 151.84 217.865 151.123L217.781 150.972L217.998 149.97C218.275 148.682 218.148 147.339 217.633 146.127L217.09 128.403C219.03 115.818 209.933 105.964 209.933 105.964H195.376L192.95 117.836L185.183 147.544C184.839 148.067 184.625 148.665 184.558 149.289C184.492 149.912 184.576 150.542 184.802 151.126L195.833 172.96L195.748 173.003C195.586 173.093 195.466 173.242 195.411 173.419C195.357 173.595 195.372 173.786 195.454 173.951C195.598 174.369 195.964 174.623 196.27 174.517L200.57 172.341C200.731 172.251 200.852 172.102 200.906 171.925C200.961 171.749 200.946 171.558 200.863 171.392C200.719 170.974 200.354 170.721 200.048 170.827L199.55 171.079L196.222 154.666L196.104 151.317L196.347 147.518L203.504 131.252L207.749 152.267L214.006 175.03C213.887 175.138 213.803 175.28 213.765 175.437C213.728 175.594 213.739 175.759 213.798 175.91C213.856 176.06 213.958 176.19 214.092 176.281C214.225 176.372 214.383 176.42 214.544 176.42H218.545C218.757 176.42 218.961 176.335 219.111 176.185C219.261 176.035 219.345 175.831 219.345 175.619C219.345 175.407 219.261 175.203 219.111 175.053C218.961 174.903 218.757 174.818 218.545 174.818Z" fill="#2F2E41"/>
<path d="M211.559 97.5573L211.171 101.897C211.171 101.897 211.003 105.5 210.471 106.296C209.943 107.089 195.531 107.189 195.531 107.189C195.531 107.189 194.579 102.053 193.759 97.5573H211.559Z" fill="#FFB6B6"/>
<path d="M204.342 70.5195C208.432 70.5195 211.747 67.2024 211.747 63.1105C211.747 59.0186 208.432 55.7015 204.342 55.7015C200.253 55.7015 196.937 59.0186 196.937 63.1105C196.937 67.2024 200.253 70.5195 204.342 70.5195Z" fill="#FFB6B6"/>
<path d="M208.142 71.937L202.199 72.6366C201.949 72.6661 201.713 72.7731 201.526 72.9427C201.339 73.1122 201.21 73.3359 201.156 73.5826L200.211 77.9099L194.319 84.852C194.319 84.852 192.203 88.8211 192.997 93.3194C193.79 97.8177 194.139 101.16 194.139 101.16C194.139 101.16 209.944 107.089 210.473 106.295C211.001 105.502 211.173 101.896 211.173 101.896L213.289 78.3459C213.289 78.3459 210.909 74.3769 209.586 74.3769C208.733 74.3481 208.842 72.4263 208.142 71.937Z" fill="#5F8BCC"/>
<path opacity="0.2" d="M205.518 87.153L202.874 106.734L200.1 106.878L205.518 87.153Z" fill="black"/>
<path d="M193.978 102.608C194.811 102.608 195.487 101.797 195.487 100.796C195.487 99.7956 194.811 98.9844 193.978 98.9844C193.145 98.9844 192.469 99.7956 192.469 100.796C192.469 101.797 193.145 102.608 193.978 102.608Z" fill="#5F8BCC"/>
<path d="M204.317 124.992C204.632 124.679 204.874 124.301 205.026 123.884C205.179 123.467 205.238 123.022 205.2 122.58C205.162 122.137 205.028 121.709 204.806 121.324C204.585 120.939 204.282 120.608 203.919 120.353L208.873 96.3639L203.528 98.051L199.542 121.259C199.154 121.898 199.015 122.657 199.149 123.392C199.284 124.127 199.683 124.787 200.272 125.248C200.861 125.708 201.597 125.936 202.343 125.889C203.089 125.842 203.791 125.523 204.317 124.992Z" fill="#FFB6B6"/>
<path d="M208.257 75.0216C208.257 75.0216 211.819 73.479 213.981 77.3625C216.144 81.2461 213.023 94.7436 212.585 96.9342C212.147 99.1247 206.142 109.567 206.142 109.567L200.14 108.366L208.257 75.0216Z" fill="#5F8BCC"/>
<path d="M200.974 56.0279C203.542 54.2611 205.803 53.9919 207.66 54.493C207.901 54.1204 208.239 53.8204 208.637 53.6253C210.086 49.9733 214.494 47.78 218.277 48.8462C222.085 49.9193 224.712 54.1393 223.996 58.0319C223.552 60.4447 222.034 62.534 221.424 64.9101C220.242 69.5099 223.125 74.7789 227.634 76.2616C223.365 77.1193 218.665 74.51 217.133 70.4312C216.389 68.45 216.344 66.287 216.25 64.1727C216.155 62.0585 215.985 59.8806 215.027 57.9936C214.385 56.6993 213.319 55.6644 212.007 55.0616C212.124 55.4253 212.154 55.8117 212.092 56.189C212.031 56.5663 211.881 56.9236 211.655 57.2315C212.656 58.4865 213.201 59.8437 213.201 60.6565C215.281 64.4603 212.307 67.7276 208.505 69.8087C206.989 70.6431 205.238 70.9486 203.529 70.6767L203.369 69.9974L203.154 70.6093L202.435 72.6608C201.605 73.0625 200.782 73.5028 199.967 73.9817C200.276 72.526 200.527 71.073 200.699 69.6523C200.938 67.7187 200.106 64.84 199.505 63.0894C199.133 62.0105 198.942 60.8774 198.94 59.736V59.686L198.355 61.565L196.227 60.6565C196.623 58.384 196.227 55.8041 200.974 56.0279Z" fill="#2F2E41"/>
<path d="M245 186.524C245 186.65 244.949 186.771 244.86 186.86C244.771 186.949 244.65 187 244.524 187H154.384C154.258 187 154.137 186.95 154.048 186.86C153.958 186.771 153.908 186.65 153.908 186.524C153.908 186.397 153.958 186.276 154.048 186.187C154.137 186.097 154.258 186.047 154.384 186.047H244.524C244.586 186.047 244.648 186.059 244.706 186.083C244.764 186.107 244.817 186.142 244.861 186.186C244.905 186.231 244.94 186.283 244.964 186.341C244.988 186.399 245 186.461 245 186.524Z" fill="#CCCCCC"/>
</g>
<defs>
<clipPath id="clip0">
<rect width="245" height="187" fill="white"/>
</clipPath>
</defs>
</svg>
